PathFileType	3	(X/Y/Z)	RCH0000002 BBF 09.c3d
DataRate	CameraRate	NumFrames	NumMarkers	Units	OrigDataRate	OrigDataStartFrame	OrigNumFrames
100.0	100.0	7	23	mm	100.0	246	352
Frame#	Time	T2			T10			MAN			LASI			RASI			LPSI			RPSI			LPAT			LKNE			LANK			LMED			LHEE			LTOE			RPAT			RKNE			RANK			RMED			RHEE			RTOE			RTHI			LTHI			RTIB			LTIB			
		X1	Y1	Z1	X2	Y2	Z2	X3	Y3	Z3	X4	Y4	Z4	X5	Y5	Z5	X6	Y6	Z6	X7	Y7	Z7	X8	Y8	Z8	X9	Y9	Z9	X10	Y10	Z10	X11	Y11	Z11	X12	Y12	Z12	X13	Y13	Z13	X14	Y14	Z14	X15	Y15	Z15	X16	Y16	Z16	X17	Y17	Z17	X18	Y18	Z18	X19	Y19	Z19	X20	Y20	Z20	X21	Y21	Z21	X22	Y22	Z22	X23	Y23	Z23	

246	2.450	-459.10783	52.12057	989.86686	-453.88457	40.41179	799.95410	-330.86186	82.59480	954.72459	-383.43449	148.16186	659.39041	-331.06171	-21.52038	656.31947	-473.16400	61.49950	705.16947	-454.46618	-5.53358	700.99422	-407.03570	110.38381	378.48492	-462.00041	164.34448	347.91068	-545.75161	162.62821	81.96539	-535.45201	94.58536	101.34164	-578.16468	121.07876	118.82637	-494.44968	129.45382	72.33231	-211.56466	33.61430	424.35148	-245.08311	-22.84951	379.36867	-342.47938	-59.68359	133.43598	-358.29179	8.03706	142.13829	-383.12267	-32.34241	173.02623	-307.63122	-19.01114	110.87567	-268.51822	-95.81118	486.20192	-456.80324	229.49661	475.09731	-277.37325	-103.73079	283.88906	-506.18046	227.80790	236.54472	
247	2.460	-449.56880	50.80193	989.08604	-445.52010	39.77854	799.11990	-321.42131	81.12000	953.39233	-374.83798	148.33329	659.12512	-322.80436	-21.38558	654.83774	-464.77376	61.59664	704.19798	-446.27759	-5.41971	699.27927	-403.07736	111.36781	377.62273	-458.38666	165.53484	348.01603	-544.90526	163.71090	82.49986	-534.69958	95.75110	102.11864	-577.16822	122.49084	119.94348	-493.68629	130.33481	72.45793	-200.76150	33.55276	425.82325	-233.52678	-22.42042	379.88628	-321.22394	-58.45390	130.57298	-337.39861	9.26615	138.40243	-363.41275	-31.12135	168.43077	-285.45108	-17.84866	109.38646	-259.51630	-95.74778	486.00101	-450.45011	230.62514	475.07968	-262.02812	-103.01865	283.15420	-503.69256	229.05259	236.74548	
248	2.470	-439.90136	49.28789	988.13177	-436.91465	39.05671	798.12839	-311.85267	79.50887	951.98449	-365.90526	148.47691	658.73937	-314.31945	-21.29676	653.17446	-456.10497	61.73653	703.06987	-437.84663	-5.28829	697.41649	-398.68827	112.27097	376.64915	-454.32666	166.64880	348.01519	-543.97527	164.77139	83.10583	-533.85943	96.87498	102.94860	-576.03811	123.89174	121.16594	-492.86226	131.17873	72.59773	-190.74082	33.85341	426.33756	-222.69671	-21.79027	379.61411	-300.46159	-57.35736	127.12761	-317.24918	10.27103	134.07563	-344.23500	-30.19425	163.23160	-264.00826	-16.70355	107.28337	-250.66028	-95.43919	485.12235	-443.65201	231.71992	474.90066	-247.04035	-102.20375	281.69726	-500.87659	230.23676	236.92306	
249	2.480	-430.12993	47.60153	986.99974	-428.06681	38.27881	796.97129	-302.17471	77.78061	950.50745	-356.65116	148.60326	658.20148	-305.57821	-21.23675	651.36038	-447.15656	61.90546	701.76422	-429.15566	-5.14858	695.42438	-393.69661	113.07524	375.51722	-449.65647	167.64704	347.84687	-542.91143	165.79438	83.81377	-532.87068	97.93984	103.84461	-574.69640	125.26023	122.53176	-491.95051	131.96703	72.74989	-181.47579	34.63816	425.84693	-212.52711	-20.89596	378.53608	-280.46770	-56.43039	123.18172	-298.13257	11.00862	129.25809	-325.83626	-29.61744	157.56051	-243.60426	-15.59787	104.62474	-241.78942	-94.80148	483.60081	-436.35277	232.73876	474.51101	-232.45134	-101.24931	279.56416	-497.59658	231.32861	237.06332	
250	2.490	-420.28028	45.76964	985.68678	-418.97935	37.48259	795.64155	-292.40721	75.95836	948.96532	-347.09668	148.71938	657.47419	-296.56477	-21.19355	649.43158	-437.93623	62.09407	700.26411	-420.19791	-5.00653	693.32831	-387.92944	113.75956	374.17178	-444.21123	168.48938	347.44009	-541.65219	166.76172	84.65452	-531.66344	98.92687	104.81824	-573.05252	126.57109	124.07748	-490.91839	132.67856	72.91073	-172.91654	35.99161	424.35407	-202.93849	-19.69655	376.67715	-261.54340	-55.70662	118.84893	-280.34134	11.44720	124.08409	-308.48137	-29.42990	151.58632	-224.54901	-14.56055	101.50101	-232.76768	-93.77852	481.49763	-428.49710	233.63811	473.85644	-218.32713	-100.13039	276.83986	-493.71028	232.29439	237.14469	
251	2.500	-410.37870	43.82202	984.19281	-409.65976	36.71012	794.13596	-282.57053	74.06869	947.36183	-337.26815	148.82762	656.51773	-287.27823	-21.16174	647.43052	-428.46064	62.29905	698.56003	-410.97871	-4.86325	691.16233	-381.22509	114.30060	372.55436	-437.83675	169.13655	346.71967	-540.12263	167.65304	85.65734	-530.15897	99.81602	105.87923	-571.00335	127.79680	125.83542	-489.72503	133.29014	73.07563	-164.99358	37.94632	421.91893	-193.84651	-18.18139	374.10636	-243.99436	-55.21372	114.26939	-264.14893	11.56983	118.71634	-292.43387	-29.64793	145.50596	-207.13752	-13.62576	98.03129	-223.49880	-92.35156	478.89836	-420.03495	234.37475	472.88163	-204.75746	-98.83941	273.64213	-489.07581	233.09983	237.13910	
252	2.510	-400.45124	41.79103	982.52293	-400.12079	36.00650	792.45765	-272.68532	72.14113	945.70256	-327.19639	148.92463	655.29382	-277.73383	-21.14330	645.40665	-418.75513	62.52377	696.65297	-401.51598	-4.71443	688.97017	-373.44583	114.67419	370.60996	-430.40098	169.55261	345.61361	-538.23270	168.44772	86.84758	-528.27025	100.58773	107.03522	-568.43420	128.91093	127.83066	-488.31826	133.77821	73.24019	-157.62269	40.47116	418.65985	-185.17127	-16.37657	370.93567	-228.10523	-54.97025	109.60125	-249.78543	11.37675	113.33679	-277.93315	-30.26159	139.53153	-191.62443	-12.82996	94.35648	-213.93749	-90.54651	475.90958	-410.92603	234.90780	471.53577	-191.85138	-97.39156	270.11121	-483.55803	233.71257	237.01401	
